<svg xmlns="http://www.w3.org/2000/svg" width="900" height="500" viewBox="0 0 900 500" role="img">
  <rect width="100%" height="100%" rx="14" fill="#f8fcfa"/>
  <style>text{font-family:Arial,sans-serif;fill:#09201c}.muted{fill:#48655c;font-size:13px}.title{font-size:19px;font-weight:700}.label{font-size:12px}</style><text x="48" y="42" class="title">DistPlot: Reported F1-score distribution</text><text x="48" y="64" class="muted">Derived from the published model-comparison table</text><line x1="78" y1="408" x2="838" y2="408" stroke="#09201c" stroke-width="1"/><line x1="78" y1="78" x2="78" y2="408" stroke="#09201c" stroke-width="1"/><line x1="78" y1="342.0" x2="838" y2="342.0" stroke="#d9e7e1" stroke-width="1"/><line x1="78" y1="276.0" x2="838" y2="276.0" stroke="#d9e7e1" stroke-width="1"/><line x1="78" y1="210.0" x2="838" y2="210.0" stroke="#d9e7e1" stroke-width="1"/><line x1="78" y1="144.0" x2="838" y2="144.0" stroke="#d9e7e1" stroke-width="1"/><rect x="140" y="314" width="92" height="94" rx="4" fill="#159a6d" opacity="0.48"/><text x="185" y="438" class="label" text-anchor="middle">92-94</text><text x="185" y="300" class="label" text-anchor="middle">1</text><rect x="285" y="220" width="92" height="188" rx="4" fill="#159a6d" opacity="0.58"/><text x="330" y="438" class="label" text-anchor="middle">94-96</text><text x="330" y="206" class="label" text-anchor="middle">2</text><rect x="430" y="314" width="92" height="94" rx="4" fill="#159a6d" opacity="0.6799999999999999"/><text x="475" y="438" class="label" text-anchor="middle">96-98</text><text x="475" y="300" class="label" text-anchor="middle">1</text><rect x="575" y="314" width="92" height="94" rx="4" fill="#159a6d" opacity="0.78"/><text x="620" y="438" class="label" text-anchor="middle">98-100</text><text x="620" y="300" class="label" text-anchor="middle">1</text><text x="458" y="478" class="muted" text-anchor="middle">F1-score band (%)</text></svg>