<svg xmlns="http://www.w3.org/2000/svg" width="900" height="500" viewBox="0 0 900 500" role="img">
  <rect width="100%" height="100%" rx="14" fill="#f8fcfa"/>
  <style>text{font-family:Arial,sans-serif;fill:#09201c}.muted{fill:#48655c;font-size:13px}.title{font-size:19px;font-weight:700}.label{font-size:12px}</style><text x="48" y="42" class="title">HeatMap: Published confusion-matrix narrative</text><text x="48" y="64" class="muted">TP, BP, and FP counts reported for the 300K evaluation split</text><text x="288" y="98" class="label" text-anchor="middle">Predicted TP</text><text x="190" y="170" class="label" text-anchor="end">Actual TP</text><text x="453" y="98" class="label" text-anchor="middle">Predicted BP</text><text x="190" y="270" class="label" text-anchor="end">Actual BP</text><text x="618" y="98" class="label" text-anchor="middle">Predicted FP</text><text x="190" y="370" class="label" text-anchor="end">Actual FP</text><rect x="210" y="118" width="156" height="92" rx="6" fill="#159a6d" fill-opacity="1.00"/><text x="288" y="168" text-anchor="middle" style="font-size:18px;font-weight:700;fill:#ffffff">178,400</text><rect x="375" y="118" width="156" height="92" rx="6" fill="#159a6d" fill-opacity="0.16"/><text x="453" y="168" text-anchor="middle" style="font-size:18px;font-weight:700;fill:#09201c">900</text><rect x="540" y="118" width="156" height="92" rx="6" fill="#159a6d" fill-opacity="0.16"/><text x="618" y="168" text-anchor="middle" style="font-size:18px;font-weight:700;fill:#09201c">700</text><rect x="210" y="218" width="156" height="92" rx="6" fill="#159a6d" fill-opacity="0.16"/><text x="288" y="268" text-anchor="middle" style="font-size:18px;font-weight:700;fill:#09201c">1,000</text><rect x="375" y="218" width="156" height="92" rx="6" fill="#159a6d" fill-opacity="0.51"/><text x="453" y="268" text-anchor="middle" style="font-size:18px;font-weight:700;fill:#09201c">73,500</text><rect x="540" y="218" width="156" height="92" rx="6" fill="#159a6d" fill-opacity="0.16"/><text x="618" y="268" text-anchor="middle" style="font-size:18px;font-weight:700;fill:#09201c">500</text><rect x="210" y="318" width="156" height="92" rx="6" fill="#159a6d" fill-opacity="0.16"/><text x="288" y="368" text-anchor="middle" style="font-size:18px;font-weight:700;fill:#09201c">600</text><rect x="375" y="318" width="156" height="92" rx="6" fill="#159a6d" fill-opacity="0.16"/><text x="453" y="368" text-anchor="middle" style="font-size:18px;font-weight:700;fill:#09201c">200</text><rect x="540" y="318" width="156" height="92" rx="6" fill="#159a6d" fill-opacity="0.37"/><text x="618" y="368" text-anchor="middle" style="font-size:18px;font-weight:700;fill:#09201c">44,200</text><text x="458" y="460" class="muted" text-anchor="middle">Strong diagonal concentration supports stable incident triage</text></svg>