<svg xmlns="http://www.w3.org/2000/svg" width="900" height="500" viewBox="0 0 900 500" role="img">
  <rect width="100%" height="100%" rx="14" fill="#f8fcfa"/>
  <style>text{font-family:Arial,sans-serif;fill:#09201c}.muted{fill:#48655c;font-size:13px}.title{font-size:19px;font-weight:700}.label{font-size:12px}</style><text x="48" y="42" class="title">JointPlot: Feature-importance distribution</text><text x="48" y="64" class="muted">Importance values from the paper discussion; marginal bars preserve the same ranking</text><line x1="90" y1="380" x2="790" y2="380" stroke="#09201c" stroke-width="1"/><line x1="90" y1="90" x2="90" y2="380" stroke="#09201c" stroke-width="1"/><line x1="90" y1="322.0" x2="790" y2="322.0" stroke="#d9e7e1" stroke-width="1"/><line x1="90" y1="264.0" x2="790" y2="264.0" stroke="#d9e7e1" stroke-width="1"/><line x1="90" y1="206.0" x2="790" y2="206.0" stroke="#d9e7e1" stroke-width="1"/><line x1="90" y1="148.0" x2="790" y2="148.0" stroke="#d9e7e1" stroke-width="1"/><line x1="105" y1="365" x2="775" y2="160" stroke="#d38716" stroke-width="2" stroke-dasharray="7 6"/><circle cx="729.5" cy="290.0" r="15.0" fill="#16869a" fill-opacity=".68"/><text x="749.5" y="294.0" class="label">MITRE Techniques</text><circle cx="611.7" cy="259.2" r="13.4" fill="#16869a" fill-opacity=".68"/><text x="630.1" y="263.2" class="label">AccountUpn</text><circle cx="550.8" cy="222.9" r="12.6" fill="#16869a" fill-opacity=".68"/><text x="568.3" y="226.9" class="label">Category</text><circle cx="294.8" cy="205.2" r="9.1" fill="#16869a" fill-opacity=".68"/><text x="308.9" y="209.2" class="label">IP Address</text><circle cx="294.8" cy="163.2" r="9.1" fill="#16869a" fill-opacity=".68"/><text x="308.9" y="167.2" class="label">Entity Type</text><circle cx="233.9" cy="336.9" r="8.3" fill="#16869a" fill-opacity=".68"/><text x="247.2" y="340.9" class="label">Day</text><circle cx="205.4" cy="297.6" r="7.9" fill="#16869a" fill-opacity=".68"/><text x="218.4" y="301.6" class="label">Account Object ID</text><circle cx="144.5" cy="261.4" r="7.1" fill="#16869a" fill-opacity=".68"/><text x="156.6" y="265.4" class="label">Folder Path</text><circle cx="120.1" cy="221.7" r="6.8" fill="#16869a" fill-opacity=".68"/><text x="131.9" y="225.7" class="label">URL</text><circle cx="112.0" cy="180.5" r="6.7" fill="#16869a" fill-opacity=".68"/><text x="123.7" y="184.5" class="label">Device Name</text><text x="450" y="486" class="muted" text-anchor="middle">Feature importance</text><rect x="112" y="425" width="38" height="47.3" fill="#159a6d" opacity=".75"/><rect x="178" y="425" width="38" height="39.8" fill="#159a6d" opacity=".75"/><rect x="244" y="425" width="38" height="35.9" fill="#159a6d" opacity=".75"/><rect x="310" y="425" width="38" height="19.5" fill="#159a6d" opacity=".75"/><rect x="376" y="425" width="38" height="19.5" fill="#159a6d" opacity=".75"/><rect x="442" y="425" width="38" height="15.6" fill="#159a6d" opacity=".75"/><rect x="508" y="425" width="38" height="13.8" fill="#159a6d" opacity=".75"/><rect x="574" y="425" width="38" height="9.9" fill="#159a6d" opacity=".75"/><rect x="640" y="425" width="38" height="8.3" fill="#159a6d" opacity=".75"/><rect x="706" y="425" width="38" height="7.8" fill="#159a6d" opacity=".75"/></svg>