<svg xmlns="http://www.w3.org/2000/svg" width="900" height="500" viewBox="0 0 900 500" role="img">
  <rect width="100%" height="100%" rx="14" fill="#f8fcfa"/>
  <style>text{font-family:Arial,sans-serif;fill:#09201c}.muted{fill:#48655c;font-size:13px}.title{font-size:19px;font-weight:700}.label{font-size:12px}</style><text x="48" y="42" class="title">PairPlot: Relationships among published performance metrics</text><text x="48" y="64" class="muted">Each point is a baseline or the proposed FedThreat-X model</text><rect x="70" y="90" width="345" height="155" rx="8" fill="#eef7f3" stroke="#d9e7e1"/><text x="84" y="112" class="label">Accuracy vs Precision</text><circle cx="179.6" cy="210.4" r="6" fill="#159a6d"/><text x="188.6" y="214.4" class="label">CNN</text><circle cx="216.0" cy="196.4" r="6" fill="#159a6d"/><text x="225.0" y="200.4" class="label">LSTM</text><circle cx="255.8" cy="182.9" r="6" fill="#159a6d"/><text x="264.8" y="186.9" class="label">GNN-TI</text><circle cx="270.7" cy="175.0" r="6" fill="#159a6d"/><text x="279.7" y="179.0" class="label">BiLSTM</text><circle cx="331.9" cy="149.1" r="6" fill="#159a6d"/><text x="340.9" y="153.1" class="label">FedThreat-X</text><rect x="485" y="90" width="345" height="155" rx="8" fill="#eef7f3" stroke="#d9e7e1"/><text x="499" y="112" class="label">Recall vs F1-score</text><circle cx="571.4" cy="207.4" r="6" fill="#16869a"/><text x="580.4" y="211.4" class="label">CNN</text><circle cx="612.8" cy="193.3" r="6" fill="#16869a"/><text x="621.8" y="197.3" class="label">LSTM</text><circle cx="654.2" cy="179.5" r="6" fill="#16869a"/><text x="663.2" y="183.5" class="label">GNN-TI</text><circle cx="669.1" cy="173.1" r="6" fill="#16869a"/><text x="678.1" y="177.1" class="label">BiLSTM</text><circle cx="742.6" cy="144.6" r="6" fill="#16869a"/><text x="751.6" y="148.6" class="label">FedThreat-X</text><rect x="70" y="295" width="345" height="155" rx="8" fill="#eef7f3" stroke="#d9e7e1"/><text x="84" y="317" class="label">Accuracy vs F1-score</text><circle cx="179.6" cy="412.4" r="6" fill="#d38716"/><text x="188.6" y="416.4" class="label">CNN</text><circle cx="216.0" cy="398.3" r="6" fill="#d38716"/><text x="225.0" y="402.3" class="label">LSTM</text><circle cx="255.8" cy="384.5" r="6" fill="#d38716"/><text x="264.8" y="388.5" class="label">GNN-TI</text><circle cx="270.7" cy="378.1" r="6" fill="#d38716"/><text x="279.7" y="382.1" class="label">BiLSTM</text><circle cx="331.9" cy="349.6" r="6" fill="#d38716"/><text x="340.9" y="353.6" class="label">FedThreat-X</text><rect x="485" y="295" width="345" height="155" rx="8" fill="#eef7f3" stroke="#d9e7e1"/><text x="499" y="317" class="label">Precision vs Recall</text><circle cx="553.2" cy="409.2" r="6" fill="#4c72c9"/><text x="562.2" y="413.2" class="label">CNN</text><circle cx="594.6" cy="395.2" r="6" fill="#4c72c9"/><text x="603.6" y="399.2" class="label">LSTM</text><circle cx="634.3" cy="381.1" r="6" fill="#4c72c9"/><text x="643.3" y="385.1" class="label">GNN-TI</text><circle cx="657.5" cy="376.1" r="6" fill="#4c72c9"/><text x="666.5" y="380.1" class="label">BiLSTM</text><circle cx="733.7" cy="351.1" r="6" fill="#4c72c9"/><text x="742.7" y="355.1" class="label">FedThreat-X</text></svg>