<svg xmlns="http://www.w3.org/2000/svg" width="900" height="500" viewBox="0 0 900 500" role="img">
  <rect width="100%" height="100%" rx="14" fill="#f8fcfa"/>
  <style>text{font-family:Arial,sans-serif;fill:#09201c}.muted{fill:#48655c;font-size:13px}.title{font-size:19px;font-weight:700}.label{font-size:12px}</style><text x="48" y="42" class="title">Pie Chart: GUIDE evaluation-class composition</text><text x="48" y="64" class="muted">300,000 published evaluation instances</text><path d="M285 260 L285.0 110.0 A150 150 0 1 1 196.8 381.4 Z" fill="#159a6d"/><path d="M285 260 L196.8 381.4 A150 150 0 0 1 163.6 171.8 Z" fill="#16869a"/><path d="M285 260 L163.6 171.8 A150 150 0 0 1 285.0 110.0 Z" fill="#cd4c4c"/><circle cx="285" cy="260" r="72" fill="#f8fcfa"/><text x="285" y="255" text-anchor="middle" style="font-size:22px;font-weight:700">300K</text><text x="285" y="278" class="muted" text-anchor="middle">instances</text><rect x="525" y="160" width="16" height="16" rx="3" fill="#159a6d"/><text x="552" y="174" class="label">True Positive: 180,000</text><text x="552" y="194" class="muted">60.0% of evaluation set</text><rect x="525" y="232" width="16" height="16" rx="3" fill="#16869a"/><text x="552" y="174" class="label">Benign Positive: 75,000</text><text x="552" y="194" class="muted">25.0% of evaluation set</text><rect x="525" y="304" width="16" height="16" rx="3" fill="#cd4c4c"/><text x="552" y="174" class="label">False Positive: 45,000</text><text x="552" y="194" class="muted">15.0% of evaluation set</text></svg>