<svg xmlns="http://www.w3.org/2000/svg" width="900" height="500" viewBox="0 0 900 500" role="img">
  <rect width="100%" height="100%" rx="14" fill="#f8fcfa"/>
  <style>text{font-family:Arial,sans-serif;fill:#09201c}.muted{fill:#48655c;font-size:13px}.title{font-size:19px;font-weight:700}.label{font-size:12px}</style><text x="48" y="42" class="title">ViolinPlot: Model metric stability</text><text x="48" y="64" class="muted">Distribution across the five published model rows</text><line x1="78" y1="408" x2="838" y2="408" stroke="#09201c" stroke-width="1"/><line x1="78" y1="78" x2="78" y2="408" stroke="#09201c" stroke-width="1"/><line x1="78" y1="342.0" x2="838" y2="342.0" stroke="#d9e7e1" stroke-width="1"/><line x1="78" y1="276.0" x2="838" y2="276.0" stroke="#d9e7e1" stroke-width="1"/><line x1="78" y1="210.0" x2="838" y2="210.0" stroke="#d9e7e1" stroke-width="1"/><line x1="78" y1="144.0" x2="838" y2="144.0" stroke="#d9e7e1" stroke-width="1"/><text x="66" y="408.0" class="label" text-anchor="end">92%</text><text x="66" y="335.5" class="label" text-anchor="end">94%</text><text x="66" y="263.0" class="label" text-anchor="end">96%</text><text x="66" y="190.5" class="label" text-anchor="end">98%</text><text x="66" y="118.0" class="label" text-anchor="end">100%</text><path d="M170 165.1249999999999 C105 207.1249999999999 105 289.8750000000002 170 331.8750000000002 C235 289.8750000000002 235 207.1249999999999 170 165.1249999999999Z" fill="#159a6d" fill-opacity=".58"/><line x1="128" y1="248.50000000000006" x2="212" y2="248.50000000000006" stroke="#09201c" stroke-width="2"/><text x="170" y="438" class="label" text-anchor="middle">Accuracy</text><path d="M355 179.6250000000001 C290 221.6250000000001 290 335.1875000000002 355 377.1875000000002 C420 335.1875000000002 420 221.6250000000001 355 179.6250000000001Z" fill="#16869a" fill-opacity=".58"/><line x1="313" y1="278.40625000000017" x2="397" y2="278.40625000000017" stroke="#09201c" stroke-width="2"/><text x="355" y="438" class="label" text-anchor="middle">Precision</text><path d="M540 169.83750000000026 C475 211.83750000000026 475 315.2499999999998 540 357.2499999999998 C605 315.2499999999998 605 211.83750000000026 540 169.83750000000026Z" fill="#d38716" fill-opacity=".58"/><line x1="498" y1="263.54375000000005" x2="582" y2="263.54375000000005" stroke="#09201c" stroke-width="2"/><text x="540" y="438" class="label" text-anchor="middle">Recall</text><path d="M725 165.1249999999999 C660 207.1249999999999 660 325.39999999999986 725 367.39999999999986 C790 325.39999999999986 790 207.1249999999999 725 165.1249999999999Z" fill="#4c72c9" fill-opacity=".58"/><line x1="683" y1="266.2624999999999" x2="767" y2="266.2624999999999" stroke="#09201c" stroke-width="2"/><text x="725" y="438" class="label" text-anchor="middle">F1-score</text></svg>